# xmcd CD database file
#
# Track frame offsets:
#	150
#	13945
#	36883
#	66360
#	100929
#	121647
#	150078
#	164777
#	184421
#	201699
#	215249
#	230884
#	244475
#	258723
#	285738
#
# Disc length: 4055 seconds
#
# Revision: 0
# Processed by: cddbd v1.5.2PL0 Copyright (c) Steve Scherf et al.
# Submitted via: CDex 1.70beta2
#
DISCID=f10fd50f
DTITLE=Arnvid Meyer and various - Right Out Of Kansas City [CD)
DYEAR=1965
DGENRE=Jazz
TTITLE0=Tickle Toe
TTITLE1=What I'm Gotcha
TTITLE2=Stompy Jones
TTITLE3=The Jeep Is Jumpin'
TTITLE4=What Am I Here For
TTITLE5=What I'm Gotcha
TTITLE6=Alphonse and Gaston
TTITLE7=Topsy
TTITLE8=Vic's Spot
TTITLE9=Blue Lou
TTITLE10=Tenderly
TTITLE11=Thanks A Million, Vic
TTITLE12=Stompy Jones
TTITLE13=Easy Money
TTITLE14=Good Queen Bess
EXTD=YEAR: 1965
EXTT0=
EXTT1=
EXTT2=
EXTT3=
EXTT4=
EXTT5=
EXTT6=
EXTT7=
EXTT8=
EXTT9=
EXTT10=
EXTT11=
EXTT12=
EXTT13=
EXTT14=
PLAYORDER=
